<?xml version="1.0" encoding="UTF-8" standalone="no"?>
<svg
   xmlns:dc="http://purl.org/dc/elements/1.1/"
   xmlns:cc="http://creativecommons.org/ns#"
   xmlns:rdf="http://www.w3.org/1999/02/22-rdf-syntax-ns#"
   xmlns:svg="http://www.w3.org/2000/svg"
   xmlns="http://www.w3.org/2000/svg"
   viewBox="0 0 254.05733 222.55733"
   height="222.55733"
   width="254.05733"
   xml:space="preserve"
   id="svg2"
   version="1.1"><metadata
     id="metadata8"><rdf:RDF><cc:Work
         rdf:about=""><dc:format>image/svg+xml</dc:format><dc:type
           rdf:resource="http://purl.org/dc/dcmitype/StillImage" /></cc:Work></rdf:RDF></metadata><defs
     id="defs6"><clipPath
       id="clipPath14"
       clipPathUnits="userSpaceOnUse"><path
         id="path12"
         d="M 0,0 H 595 V 842 H 0 Z" /></clipPath></defs><g
     clip-path="url(#clipPath14)"
     transform="matrix(1.3333333,0,0,-1.3333333,-261.33333,862.55733)"
     id="g10"><g
       id="g16"><path
         id="path18"
         style="fill:none;stroke:#000000;stroke-width:0.40000001;stroke-linecap:butt;stroke-linejoin:round;stroke-miterlimit:10;stroke-dasharray:none;stroke-opacity:1"
         d="m 292,608 c -16,-28 -16,-40 -14,-53 2,-13 6,-27 6,-27 h 16 c 0,0 4,14 6,27 2,13 2,25 -14,53 z" /></g><g
       id="g20"><path
         id="path22"
         style="fill:none;stroke:#000000;stroke-width:0.40000001;stroke-linecap:butt;stroke-linejoin:round;stroke-miterlimit:10;stroke-dasharray:none;stroke-opacity:1"
         d="m 364.443,564 c 0,40.009 -32.434,72.443 -72.443,72.443 -40.009,0 -72.443,-32.434 -72.443,-72.443 0,-40.009 32.434,-72.443 72.443,-72.443 40.009,0 72.443,32.434 72.443,72.443" /></g><g
       transform="translate(296,640)"
       id="g24"><g
         transform="translate(0,-785.14)"
         id="g26"><text
           id="text30"
           style="font-variant:normal;font-weight:normal;font-size:9.96259975px;font-family:CMR10;-inkscape-font-specification:CMR10;writing-mode:lr-tb;fill:#000000;fill-opacity:1;fill-rule:nonzero;stroke:none"
           transform="matrix(1,0,0,-1,0,785.14)"><tspan
             id="tspan28"
             y="0"
             x="0">0</tspan></text>
<text
           id="text34"
           style="font-variant:normal;font-weight:normal;font-size:6.97380018px;font-family:CMSY7;-inkscape-font-specification:CMSY7;writing-mode:lr-tb;fill:#000000;fill-opacity:1;fill-rule:nonzero;stroke:none"
           transform="matrix(1,0,0,-1,4.981,788.755)"><tspan
             id="tspan32"
             y="0"
             x="0">◦</tspan></text>
</g></g><g
       transform="translate(372,560)"
       id="g36"><g
         transform="translate(0,-785.14)"
         id="g38"><text
           id="text42"
           style="font-variant:normal;font-weight:normal;font-size:9.96259975px;font-family:CMR10;-inkscape-font-specification:CMR10;writing-mode:lr-tb;fill:#000000;fill-opacity:1;fill-rule:nonzero;stroke:none"
           transform="matrix(1,0,0,-1,0,785.14)"><tspan
             id="tspan40"
             y="0"
             x="0 4.9812999">90</tspan></text>
<text
           id="text46"
           style="font-variant:normal;font-weight:normal;font-size:6.97380018px;font-family:CMSY7;-inkscape-font-specification:CMSY7;writing-mode:lr-tb;fill:#000000;fill-opacity:1;fill-rule:nonzero;stroke:none"
           transform="matrix(1,0,0,-1,9.963,788.755)"><tspan
             id="tspan44"
             y="0"
             x="0">◦</tspan></text>
</g></g><g
       transform="translate(196,560)"
       id="g48"><g
         transform="translate(0,-785.14)"
         id="g50"><text
           id="text54"
           style="font-variant:normal;font-weight:normal;font-size:9.96259975px;font-family:CMR10;-inkscape-font-specification:CMR10;writing-mode:lr-tb;fill:#000000;fill-opacity:1;fill-rule:nonzero;stroke:none"
           transform="matrix(1,0,0,-1,0,785.14)"><tspan
             id="tspan52"
             y="0"
             x="0 4.9812999 9.9625998">270</tspan></text>
<text
           id="text58"
           style="font-variant:normal;font-weight:normal;font-size:6.97380018px;font-family:CMSY7;-inkscape-font-specification:CMSY7;writing-mode:lr-tb;fill:#000000;fill-opacity:1;fill-rule:nonzero;stroke:none"
           transform="matrix(1,0,0,-1,14.944,788.755)"><tspan
             id="tspan56"
             y="0"
             x="0">◦</tspan></text>
</g></g><g
       transform="translate(287,480)"
       id="g60"><g
         transform="translate(0,-785.14)"
         id="g62"><text
           id="text66"
           style="font-variant:normal;font-weight:normal;font-size:9.96259975px;font-family:CMR10;-inkscape-font-specification:CMR10;writing-mode:lr-tb;fill:#000000;fill-opacity:1;fill-rule:nonzero;stroke:none"
           transform="matrix(1,0,0,-1,0,785.14)"><tspan
             id="tspan64"
             y="0"
             x="0 4.9812999 9.9625998">180</tspan></text>
<text
           id="text70"
           style="font-variant:normal;font-weight:normal;font-size:6.97380018px;font-family:CMSY7;-inkscape-font-specification:CMSY7;writing-mode:lr-tb;fill:#000000;fill-opacity:1;fill-rule:nonzero;stroke:none"
           transform="matrix(1,0,0,-1,14.944,788.755)"><tspan
             id="tspan68"
             y="0"
             x="0">◦</tspan></text>
</g></g><g
       transform="translate(254,640)"
       id="g72"><g
         transform="translate(0,-785.14)"
         id="g74"><text
           id="text78"
           style="font-variant:normal;font-weight:normal;font-size:9.96259975px;font-family:CMR10;-inkscape-font-specification:CMR10;writing-mode:lr-tb;fill:#000000;fill-opacity:1;fill-rule:nonzero;stroke:none"
           transform="matrix(1,0,0,-1,0,785.14)"><tspan
             id="tspan76"
             y="0"
             x="0 4.9812999 9.9625998">360</tspan></text>
<text
           id="text82"
           style="font-variant:normal;font-weight:normal;font-size:6.97380018px;font-family:CMSY7;-inkscape-font-specification:CMSY7;writing-mode:lr-tb;fill:#000000;fill-opacity:1;fill-rule:nonzero;stroke:none"
           transform="matrix(1,0,0,-1,14.944,788.755)"><tspan
             id="tspan80"
             y="0"
             x="0">◦</tspan></text>
</g></g><g
       transform="translate(275.524,640)"
       id="g84"><g
         transform="translate(0,-785.081)"
         id="g86"><text
           id="text90"
           style="font-variant:normal;font-weight:normal;font-size:9.96259975px;font-family:CMR10;-inkscape-font-specification:CMR10;writing-mode:lr-tb;fill:#000000;fill-opacity:1;fill-rule:nonzero;stroke:none"
           transform="matrix(1,0,0,-1,0,785.081)"><tspan
             id="tspan88"
             y="0"
             x="0 4.9812999 7.7489104 11.67816">also</tspan></text>
</g></g><g
       id="g92"><path
         id="path94"
         style="fill:none;stroke:#000000;stroke-width:0.40000001;stroke-linecap:butt;stroke-linejoin:round;stroke-miterlimit:10;stroke-dasharray:none;stroke-opacity:1"
         d="M 215.524,560 H 224" /></g><g
       id="g96"><path
         id="path98"
         style="fill:none;stroke:#000000;stroke-width:0.40000001;stroke-linecap:butt;stroke-linejoin:round;stroke-miterlimit:10;stroke-dasharray:none;stroke-opacity:1"
         d="m 360,560 h 12" /></g><g
       id="g100"><path
         id="path102"
         style="fill:none;stroke:#000000;stroke-width:0.40000001;stroke-linecap:butt;stroke-linejoin:round;stroke-miterlimit:10;stroke-dasharray:none;stroke-opacity:1"
         d="m 292,488 v 12" /></g><g
       id="g104"><path
         id="path106"
         style="fill:none;stroke:#000000;stroke-width:0.40000001;stroke-linecap:butt;stroke-linejoin:round;stroke-miterlimit:10;stroke-dasharray:none;stroke-opacity:1"
         d="m 292,632 v 8" /></g></g></svg>